<svg width="14" height="10" viewBox="0 0 14 10" fill="none" xmlns="http://www.w3.org/2000/svg">
    <path fill-rule="evenodd" clip-rule="evenodd" d="M8.74998 5.00001C10.0391 5.00001 11.0833 3.95584 11.0833 2.66668C11.0833 1.37751 10.0391 0.333344 8.74998 0.333344C7.46081 0.333344 6.41665 1.37751 6.41665 2.66668C6.41665 3.95584 7.46081 5.00001 8.74998 5.00001ZM8.74998 1.50001C9.39165 1.50001 9.91665 2.02501 9.91665 2.66668C9.91665 3.30834 9.39165 3.83334 8.74998 3.83334C8.10831 3.83334 7.58331 3.30834 7.58331 2.66668C7.58331 2.02501 8.10831 1.50001 8.74998 1.50001ZM4.08331 8.50001C4.08331 6.94834 7.19248 6.16668 8.74998 6.16668C10.3075 6.16668 13.4166 6.94834 13.4166 8.50001V9.66668H4.08331V8.50001ZM5.24998 8.50001C5.37831 8.08001 7.18081 7.33334 8.74998 7.33334C10.325 7.33334 12.1333 8.08584 12.25 8.50001H5.24998ZM3.49998 5.00001V6.75001H2.33331V5.00001H0.583313V3.83334H2.33331V2.08334H3.49998V3.83334H5.24998V5.00001H3.49998Z" fill="#4E6673" />
</svg>
