<svg width="24" height="20" viewBox="0 0 24 20" fill="none" xmlns="http://www.w3.org/2000/svg">
    <path d="M20.3515 13.7422C20.3508 13.7422 20.35 13.7422 20.35 13.7422L19.3536 13.7462L19.3497 12.7145C19.349 12.4275 19.1237 12.195 18.8465 12.195C18.8457 12.195 18.845 12.195 18.845 12.195C18.567 12.1958 18.3425 12.4299 18.3433 12.7177L18.3472 13.7494L17.3508 13.7534C17.0729 13.7542 16.8483 13.9883 16.8491 14.2761C16.8499 14.5631 17.0752 14.7956 17.3523 14.7956C17.3531 14.7956 17.3539 14.7956 17.3539 14.7956L18.3503 14.7916L18.3541 15.8233C18.3549 16.1103 18.5802 16.3428 18.8574 16.3428C18.8581 16.3428 18.8589 16.3428 18.8589 16.3428C19.1368 16.342 19.3614 16.1079 19.3606 15.8201L19.3567 14.7884L20.3531 14.7843C20.631 14.7835 20.8555 14.5495 20.8548 14.2617C20.8532 13.9739 20.6287 13.7422 20.3515 13.7422Z" fill="white" />
    <path d="M18.8515 8.93777C16.0125 8.93777 13.7031 11.3291 13.7031 14.2688C13.7031 17.2085 16.0125 19.5999 18.8515 19.5999C21.6904 19.5999 23.9998 17.2085 23.9998 14.2688C23.9998 11.3291 21.6904 8.93777 18.8515 8.93777ZM18.8515 18.5577C16.5676 18.5577 14.7096 16.6337 14.7096 14.2688C14.7096 11.9039 16.5676 9.97994 18.8515 9.97994C21.1353 9.97994 22.9934 11.9039 22.9934 14.2688C22.9934 16.6337 21.1353 18.5577 18.8515 18.5577Z" fill="white" />
    <path d="M18.8514 7.77538H18.8545C18.8646 7.77538 18.8747 7.77538 18.8847 7.77619C18.8863 7.77619 18.8886 7.77619 18.8902 7.77619C19.1565 7.77619 19.4112 7.66716 19.6001 7.47316C19.7898 7.27755 19.8966 7.0114 19.8966 6.73402V3.48649C19.8966 2.73533 19.3059 2.12366 18.5805 2.12366H16.1611V0.921166C16.1611 0.633369 15.9359 0.400085 15.6579 0.400085C15.38 0.400085 15.1547 0.633369 15.1547 0.921166V2.12366H4.74189V0.938803C4.74189 0.651006 4.5166 0.417722 4.23867 0.417722C3.96074 0.417722 3.73545 0.651006 3.73545 0.938803V2.12366H1.31612C0.590704 2.12366 0 2.73533 0 3.48649V13.9562C0 14.7074 0.590704 15.319 1.31612 15.319H11.5741C11.8412 15.319 12.0974 15.2092 12.2863 15.0128C12.4752 14.8172 12.5813 14.551 12.5805 14.2745C12.5805 14.2713 12.5805 14.2664 12.5805 14.2616C12.5836 10.6846 15.3955 7.77538 18.8514 7.77538ZM1.31612 3.16582H3.73545V4.04445C3.73545 4.33224 3.96074 4.56553 4.23867 4.56553C4.5166 4.56553 4.74189 4.33224 4.74189 4.04445V3.16582H15.1547V4.02681C15.1547 4.31461 15.38 4.54789 15.6579 4.54789C15.9359 4.54789 16.1611 4.31461 16.1611 4.02681V3.16582H18.5805C18.7516 3.16582 18.8902 3.30932 18.8902 3.48649V5.29023H1.00644V3.48649C1.00644 3.30932 1.14502 3.16582 1.31612 3.16582ZM11.5741 14.2769H1.31612C1.14502 14.2769 1.00644 14.1334 1.00644 13.9562V6.33239H18.8902V6.73402C18.877 6.73402 18.8646 6.73322 18.8514 6.73322C14.8326 6.73322 11.5741 10.1074 11.5741 14.2689C11.5741 14.2713 11.5741 14.2745 11.5741 14.2769Z" fill="white" />
</svg>
