<svg width="17" height="14" viewBox="0 0 17 14" fill="none" xmlns="http://www.w3.org/2000/svg">
    <path d="M1.12451 1.61741H3.19164V0.488984C3.19164 0.218915 3.38413 0 3.6216 0C3.85907 0 4.05156 0.218915 4.05156 0.488984V1.61741H12.9484V0.505535C12.9484 0.235465 13.1409 0.0165502 13.3784 0.0165502C13.6159 0.0165502 13.8084 0.235465 13.8084 0.505535V1.61741H15.8755C16.4953 1.61741 17 2.1914 17 2.89629V12.7211C17 13.426 16.4953 14 15.8755 14H1.12451C0.504709 14 0 13.426 0 12.7211V2.89629C0 2.1914 0.504709 1.61741 1.12451 1.61741ZM15.8755 2.59538H13.8084V3.41988C13.8084 3.68995 13.6159 3.90887 13.3784 3.90887C13.1409 3.90887 12.9484 3.68995 12.9484 3.41988V2.59538H4.05156V3.40333C4.05156 3.6734 3.85907 3.89232 3.6216 3.89232C3.38413 3.89232 3.19164 3.6734 3.19164 3.40333V2.59538H1.12451C0.978327 2.59538 0.859922 2.73004 0.859922 2.89629V4.58893H16.1401V2.89629C16.1401 2.73004 16.0217 2.59538 15.8755 2.59538ZM0.859922 12.7211C0.859922 12.8874 0.978327 13.022 1.12451 13.022H15.8755C16.0217 13.022 16.1401 12.8874 16.1401 12.7211V5.5669H0.859922V12.7211Z" fill="#7C91C5"/>
    </svg>
