<svg width="17" height="13" viewBox="0 0 17 13" fill="none" xmlns="http://www.w3.org/2000/svg">
    <path d="M15.8755 1.71413H12.3035V1.16561C12.3035 0.523154 11.7988 0 11.179 0H5.82101C5.20121 0 4.6965 0.523154 4.6965 1.16561V1.71413H1.12451C0.504708 1.71413 0 2.23729 0 2.87975V11.8344C0 12.4768 0.504708 13 1.12451 13H15.8755C16.4953 13 17 12.4768 17 11.8344V2.87975C17 2.23729 16.4953 1.71413 15.8755 1.71413ZM5.55642 2.60549V1.16561C5.55642 1.01408 5.67482 0.89135 5.82101 0.89135H11.179C11.3252 0.89135 11.4436 1.01408 11.4436 1.16561V2.60549V3.26371C11.4436 3.41524 11.3252 3.53797 11.179 3.53797H5.82101C5.67482 3.53797 5.55642 3.41524 5.55642 3.26371V2.60549ZM16.1401 11.8344C16.1401 11.9859 16.0217 12.1087 15.8755 12.1087H1.12451C0.978327 12.1087 0.859922 11.9859 0.859922 11.8344V2.87975C0.859922 2.72822 0.978327 2.60549 1.12451 2.60549H4.6965V3.26371C4.6965 3.90617 5.20121 4.42932 5.82101 4.42932H11.179C11.7988 4.42932 12.3035 3.90617 12.3035 3.26371V2.60549H15.8755C16.0217 2.60549 16.1401 2.72822 16.1401 2.87975V11.8344Z" fill="#7C91C5" />
    <path d="M4.6304 8.05644C5.48768 8.05644 6.18488 7.33376 6.18488 6.44515C6.18488 5.55654 5.48768 4.83386 4.6304 4.83386C3.77313 4.83386 3.07593 5.55654 3.07593 6.44515C3.07593 7.33376 3.77313 8.05644 4.6304 8.05644ZM4.6304 5.72521C5.0134 5.72521 5.32496 6.04816 5.32496 6.44515C5.32496 6.84214 5.0134 7.16509 4.6304 7.16509C4.24741 7.16509 3.93585 6.84214 3.93585 6.44515C3.93585 6.04816 4.24741 5.72521 4.6304 5.72521Z" fill="#7C91C5" />
    <path d="M6.05463 8.50212H3.27245C2.3649 8.50212 1.65381 9.10344 1.65381 9.87205V10.5934C1.65381 10.8395 1.8463 11.039 2.08377 11.039C2.32124 11.039 2.51373 10.8395 2.51373 10.5934V9.87205C2.51373 9.64579 2.82529 9.39347 3.27245 9.39347H6.05463C6.50179 9.39347 6.81334 9.64579 6.81334 9.87205V10.5934C6.81334 10.8395 7.00583 11.039 7.2433 11.039C7.48077 11.039 7.67326 10.8395 7.67326 10.5934V9.87205C7.67326 9.10344 6.96217 8.50212 6.05463 8.50212Z" fill="#7C91C5" />
    <path d="M8.92996 6.10232H14.751C14.9884 6.10232 15.1809 5.90279 15.1809 5.65664C15.1809 5.41049 14.9884 5.21097 14.751 5.21097H8.92996C8.69249 5.21097 8.5 5.41049 8.5 5.65664C8.5 5.90279 8.69249 6.10232 8.92996 6.10232Z" fill="#7C91C5" />
    <path d="M14.7842 7.53946H8.96316C8.72569 7.53946 8.5332 7.73898 8.5332 7.98513C8.5332 8.23128 8.72569 8.43081 8.96316 8.43081H14.7842C15.0216 8.43081 15.2141 8.23128 15.2141 7.98513C15.2141 7.73898 15.0216 7.53946 14.7842 7.53946Z" fill="#7C91C5" />
    <path d="M14.7842 10.0791H8.96316C8.72569 10.0791 8.5332 10.2786 8.5332 10.5248C8.5332 10.7709 8.72569 10.9705 8.96316 10.9705H14.7842C15.0216 10.9705 15.2141 10.7709 15.2141 10.5248C15.2141 10.2786 15.0216 10.0791 14.7842 10.0791Z" fill="#7C91C5" />
</svg>
