<svg width="15" height="14" viewBox="0 0 15 14" fill="none" xmlns="http://www.w3.org/2000/svg">
    <path fill-rule="evenodd" clip-rule="evenodd" d="M9.35317 8.31541H9.84692L12.9657 11.2321L12.0344 12.1012L8.90942 9.19041V8.72958L8.74067 8.56624C8.02817 9.13791 7.10317 9.48208 6.09692 9.48208C3.85317 9.48208 2.03442 7.78458 2.03442 5.69041C2.03442 3.59624 3.85317 1.89874 6.09692 1.89874C8.34067 1.89874 10.1594 3.59624 10.1594 5.69041C10.1594 6.62958 9.79067 7.49291 9.17817 8.15791L9.35317 8.31541ZM3.28442 5.69041C3.28442 7.14291 4.54067 8.31541 6.09692 8.31541C7.65317 8.31541 8.90942 7.14291 8.90942 5.69041C8.90942 4.23791 7.65317 3.06541 6.09692 3.06541C4.54067 3.06541 3.28442 4.23791 3.28442 5.69041Z" fill="#B3CFE2"/>
    </svg>
